<svg width="0" height="0" class="hidden" xmlns="http://www.w3.org/2000/svg">
  <defs>
    <symbol id="logo" viewBox="0 0 56 56" fill="none" >
      <path d="M8 12C8 9.79086 9.79086 8 12 8H52C54.2091 8 56 9.79086 56 12V52C56 54.2091 54.2091 56 52 56H12C9.79086 56 8 54.2091 8 52V12Z" fill="#B6F2FF"/>
      <path fill-rule="evenodd" clip-rule="evenodd" d="M52 10H12C10.8954 10 10 10.8954 10 12V52C10 53.1046 10.8954 54 12 54H52C53.1046 54 54 53.1046 54 52V12C54 10.8954 53.1046 10 52 10ZM12 8C9.79086 8 8 9.79086 8 12V52C8 54.2091 9.79086 56 12 56H52C54.2091 56 56 54.2091 56 52V12C56 9.79086 54.2091 8 52 8H12Z" fill="black"/>
      <path d="M0 4C0 1.79086 1.79086 0 4 0H44C46.2091 0 48 1.79086 48 4V44C48 46.2091 46.2091 48 44 48H4C1.79086 48 0 46.2091 0 44V4Z" fill="white"/>
      <path fill-rule="evenodd" clip-rule="evenodd" d="M44 2H4C2.89543 2 2 2.89543 2 4V44C2 45.1046 2.89543 46 4 46H44C45.1046 46 46 45.1046 46 44V4C46 2.89543 45.1046 2 44 2ZM4 0C1.79086 0 0 1.79086 0 4V44C0 46.2091 1.79086 48 4 48H44C46.2091 48 48 46.2091 48 44V4C48 1.79086 46.2091 0 44 0H4Z" fill="black"/>
      <path d="M10.8996 40C9.01046 40 8 38.9834 8 37.0829V10.9613C8 9.06077 9.01046 8 10.8996 8H27.1004C28.9895 8 30 9.06077 30 10.9613V11.3149C30 13.2155 28.9895 14.232 27.1004 14.232H14.8975V21.1713H26.3096C28.1987 21.1713 29.2092 22.1436 29.2092 23.8674V23.9116C29.2092 25.6354 28.1987 26.6077 26.3096 26.6077H14.8975V33.8122H27.1004C28.9895 33.8122 30 34.8729 30 36.7735V37.0829C30 38.9834 28.9895 40 27.1004 40H10.8996Z" fill="black"/>
      <path d="M36.12 40.3421C34.3893 40.3421 32.854 39.5885 32.1562 38.4719C31.8352 37.9276 32.0166 37.5228 32.6307 37.3274L32.8261 37.2716C33.3146 37.1041 33.5937 37.2576 33.9845 37.6903C34.5428 38.2765 35.2546 38.5975 36.092 38.5975C37.1667 38.5975 37.7948 38.1509 37.7948 37.3972C37.7948 35.4293 32.2539 36.7133 32.2539 32.931C32.2539 31.1724 33.7473 30 35.8827 30C37.4738 30 38.9114 30.6281 39.5394 31.6469C39.9163 32.2331 39.7488 32.6658 39.1068 32.8193L38.8695 32.8751C38.2693 33.0147 38.0321 32.7635 37.6134 32.4006C37.1388 31.9679 36.6503 31.7586 35.9804 31.7586C35.0174 31.7586 34.4172 32.1773 34.4172 32.8751C34.4172 35.0106 40 33.5311 40 37.3414C40 39.1558 38.4089 40.3421 36.12 40.3421Z" fill="black"/>
    </symbol>
    <symbol id="filler" width="12" height="60" viewBox="0 0 12 60" >
      <circle cx="6" cy="6" r="5" fill="#FFB6F8" stroke="black" stroke-width="2"/>
      <circle cx="6" cy="30" r="5" fill="#68E4FF" stroke="black" stroke-width="2"/>
      <circle cx="6" cy="54" r="5" fill="#6EFF4A" stroke="black" stroke-width="2"/>
    </symbol>
    <symbol id="right-arrow" viewBox="0 0 20 20" fill="none" >
      <path d="M1 10H19M19 10L10.5 1.5M19 10L10.5 18.5" stroke="black" stroke-width="2" stroke-linecap="round" stroke-linejoin="round"></path>
    </symbol>
    <symbol id="left-arrow" xmlns:xlink="http://www.w3.org/1999/xlink" aria-hidden="true" role="img" viewBox="0 0 24 24">
      <path fill="none" stroke="currentColor" stroke-linecap="round" stroke-linejoin="round" stroke-width="1.5" d="M21 12H3m0 0l8.5-8.5M3 12l8.5 8.5"></path>
    </symbol>
    <symbol id="quote" xmlns:xlink="http://www.w3.org/1999/xlink" aria-hidden="true" role="img" viewBox="0 0 24 24" fill="none">
      <path d="M6.5 10c-.223 0-.437.034-.65.065c.069-.232.14-.468.254-.68c.114-.308.292-.575.469-.844c.148-.291.409-.488.601-.737c.201-.242.475-.403.692-.604c.213-.21.492-.315.714-.463c.232-.133.434-.28.65-.35l.539-.222l.474-.197l-.485-1.938l-.597.144c-.191.048-.424.104-.689.171c-.271.05-.56.187-.882.312c-.318.142-.686.238-1.028.466c-.344.218-.741.4-1.091.692c-.339.301-.748.562-1.05.945c-.33.358-.656.734-.909 1.162c-.293.408-.492.856-.702 1.299c-.19.443-.343.896-.468 1.336c-.237.882-.343 1.72-.384 2.437c-.034.718-.014 1.315.028 1.747c.015.204.043.402.063.539l.025.168l.026-.006A4.5 4.5 0 1 0 6.5 10zm11 0c-.223 0-.437.034-.65.065c.069-.232.14-.468.254-.68c.114-.308.292-.575.469-.844c.148-.291.409-.488.601-.737c.201-.242.475-.403.692-.604c.213-.21.492-.315.714-.463c.232-.133.434-.28.65-.35l.539-.222l.474-.197l-.485-1.938l-.597.144c-.191.048-.424.104-.689.171c-.271.05-.56.187-.882.312c-.317.143-.686.238-1.028.467c-.344.218-.741.4-1.091.692c-.339.301-.748.562-1.05.944c-.33.358-.656.734-.909 1.162c-.293.408-.492.856-.702 1.299c-.19.443-.343.896-.468 1.336c-.237.882-.343 1.72-.384 2.437c-.034.718-.014 1.315.028 1.747c.015.204.043.402.063.539l.025.168l.026-.006A4.5 4.5 0 1 0 17.5 10z" fill="none" stroke-linecap="round" stroke-linejoin="round"></path>
    </symbol>
    <symbol id="test-quote" viewBox="0 0 62 40" fill="none" >
      <path d="M55.4695 38.6383L54.7372 38.1095C53.586 39.2566 51.6598 39.2575 50.5048 38.0314C50.3703 37.8871 50.2272 37.7338 50.0762 37.5721C47.962 35.3081 44.3029 31.3898 41.0807 27.1007C39.3543 24.8027 37.7718 22.4221 36.6246 20.1545C35.4688 17.8697 34.8017 15.7896 34.8017 14.0689C34.8017 6.81027 40.5434 1 47.817 1C55.0954 1 60.9354 6.91779 60.9354 14.0689C60.9354 20.2548 56.4363 25.5178 50.6822 26.8557L49.1567 27.2104L50.1203 28.445C51.5542 30.2821 53.1259 32.2683 54.916 34.0563C55.9156 35.2307 55.8746 36.9761 54.8402 38.0068L54.7501 38.0966L54.7441 38.1026C54.8091 38.0979 54.8716 38.0967 54.9316 38.0985C55.342 38.1108 55.6339 38.2654 55.7983 38.4369C55.7235 38.5284 55.6435 38.6171 55.5586 38.7026L55.4695 38.6383ZM55.4695 38.6383L55.5461 38.7151L55.4695 38.6383ZM15.3179 27.1819L16.3231 28.4507C17.8784 30.4139 19.4436 32.2863 21.1191 34.0604M15.3179 27.1819L21.8474 33.3751M15.3179 27.1819L16.9024 26.8509C22.8441 25.6094 27.3398 20.3572 27.3398 14.0689C27.3398 6.82458 21.4062 1 14.2214 1C6.94304 1 1.09937 6.81657 0.999947 14.0753C1.00161 15.7953 1.66882 17.8798 2.82353 20.1702C3.97088 22.4459 5.5536 24.8362 7.27978 27.1403C10.7317 31.7479 14.6884 35.9208 16.6967 38.0246L16.7017 38.0299C17.8862 39.289 19.7948 39.3211 20.913 38.1326L20.924 38.1209L20.9354 38.1095L21.0255 38.0197M15.3179 27.1819L21.7443 38.7151L21.0145 38.0315C21.0182 38.0276 21.0219 38.0236 21.0255 38.0197M21.1191 34.0604C21.1195 34.0608 21.12 34.0613 21.1204 34.0618L21.8474 33.3751M21.1191 34.0604C21.1186 34.0598 21.1181 34.0593 21.1175 34.0587L21.8474 33.3751M21.1191 34.0604C22.1632 35.1768 22.1311 36.8286 21.0255 38.0197M21.8474 33.3751C23.1457 34.7613 23.1922 36.7296 22.1371 38.2324C21.9506 38.0482 21.5521 37.9021 21.0523 37.9933L21.0453 38.0001L21.0419 38.0035L21.0401 38.0051L21.0393 38.006L21.0389 38.0064L21.0385 38.0068L21.037 38.0083L21.0256 38.0196L21.0255 38.0197" fill="#FFB6F8" stroke="black" stroke-width="2"/>
    </symbol>
  </defs>  
</svg>