<svg width="0" height="0" class="hidden" xmlns="http://www.w3.org/2000/svg">
  <defs>
    <symbol id="logo" viewBox="0 0 56 56" fill="none" >
      <path d="M8 12C8 9.79086 9.79086 8 12 8H52C54.2091 8 56 9.79086 56 12V52C56 54.2091 54.2091 56 52 56H12C9.79086 56 8 54.2091 8 52V12Z" fill="#B6F2FF"/>
      <path fill-rule="evenodd" clip-rule="evenodd" d="M52 10H12C10.8954 10 10 10.8954 10 12V52C10 53.1046 10.8954 54 12 54H52C53.1046 54 54 53.1046 54 52V12C54 10.8954 53.1046 10 52 10ZM12 8C9.79086 8 8 9.79086 8 12V52C8 54.2091 9.79086 56 12 56H52C54.2091 56 56 54.2091 56 52V12C56 9.79086 54.2091 8 52 8H12Z" fill="black"/>
      <path d="M0 4C0 1.79086 1.79086 0 4 0H44C46.2091 0 48 1.79086 48 4V44C48 46.2091 46.2091 48 44 48H4C1.79086 48 0 46.2091 0 44V4Z" fill="white"/>
      <path fill-rule="evenodd" clip-rule="evenodd" d="M44 2H4C2.89543 2 2 2.89543 2 4V44C2 45.1046 2.89543 46 4 46H44C45.1046 46 46 45.1046 46 44V4C46 2.89543 45.1046 2 44 2ZM4 0C1.79086 0 0 1.79086 0 4V44C0 46.2091 1.79086 48 4 48H44C46.2091 48 48 46.2091 48 44V4C48 1.79086 46.2091 0 44 0H4Z" fill="black"/>
      <path d="M10.8996 40C9.01046 40 8 38.9834 8 37.0829V10.9613C8 9.06077 9.01046 8 10.8996 8H27.1004C28.9895 8 30 9.06077 30 10.9613V11.3149C30 13.2155 28.9895 14.232 27.1004 14.232H14.8975V21.1713H26.3096C28.1987 21.1713 29.2092 22.1436 29.2092 23.8674V23.9116C29.2092 25.6354 28.1987 26.6077 26.3096 26.6077H14.8975V33.8122H27.1004C28.9895 33.8122 30 34.8729 30 36.7735V37.0829C30 38.9834 28.9895 40 27.1004 40H10.8996Z" fill="black"/>
      <path d="M36.12 40.3421C34.3893 40.3421 32.854 39.5885 32.1562 38.4719C31.8352 37.9276 32.0166 37.5228 32.6307 37.3274L32.8261 37.2716C33.3146 37.1041 33.5937 37.2576 33.9845 37.6903C34.5428 38.2765 35.2546 38.5975 36.092 38.5975C37.1667 38.5975 37.7948 38.1509 37.7948 37.3972C37.7948 35.4293 32.2539 36.7133 32.2539 32.931C32.2539 31.1724 33.7473 30 35.8827 30C37.4738 30 38.9114 30.6281 39.5394 31.6469C39.9163 32.2331 39.7488 32.6658 39.1068 32.8193L38.8695 32.8751C38.2693 33.0147 38.0321 32.7635 37.6134 32.4006C37.1388 31.9679 36.6503 31.7586 35.9804 31.7586C35.0174 31.7586 34.4172 32.1773 34.4172 32.8751C34.4172 35.0106 40 33.5311 40 37.3414C40 39.1558 38.4089 40.3421 36.12 40.3421Z" fill="black"/>
    </symbol>
    <symbol id="filler" width="12" height="60" viewBox="0 0 12 60" >
      <circle cx="6" cy="6" r="5" fill="#FFB6F8" stroke="black" stroke-width="2"/>
      <circle cx="6" cy="30" r="5" fill="#68E4FF" stroke="black" stroke-width="2"/>
      <circle cx="6" cy="54" r="5" fill="#6EFF4A" stroke="black" stroke-width="2"/>
    </symbol>
    <symbol id="right-arrow" viewBox="0 0 20 20" fill="none" >
      <path d="M1 10H19M19 10L10.5 1.5M19 10L10.5 18.5" stroke="black" stroke-width="2" stroke-linecap="round" stroke-linejoin="round"></path>
    </symbol>
    <symbol id="left-arrow" xmlns:xlink="http://www.w3.org/1999/xlink" aria-hidden="true" role="img" viewBox="0 0 24 24">
      <path fill="none" stroke="currentColor" stroke-linecap="round" stroke-linejoin="round" stroke-width="1.5" d="M21 12H3m0 0l8.5-8.5M3 12l8.5 8.5"></path>
    </symbol>
    <symbol viewBox="0 0 63 41" fill="none" id="quote">
      <path d="M28.1142 14.5635C28.1142 20.8014 23.4552 25.9887 17.3136 27.0583L21.4275 32.4053C22.648 33.9915 22.3515 36.2667 20.7653 37.4871C19.1791 38.7074 16.9038 38.411 15.6834 36.8248L4.56126 22.369C4.4811 22.265 4.40759 22.1579 4.3405 22.0484C2.75163 19.9496 1.81372 17.3623 1.81372 14.5635C1.81372 7.5513 7.70136 1.8667 14.964 1.8667C22.2266 1.8667 28.1142 7.5513 28.1142 14.5635Z" fill="currentColor"/>
      <path fill-rule="evenodd" clip-rule="evenodd" d="M19.2318 26.5768C18.6121 26.782 17.9714 26.9437 17.3137 27.0582L21.4276 32.4053C22.6481 33.9915 22.3516 36.2667 20.7654 37.4871C19.1792 38.7074 16.9039 38.411 15.6835 36.8247L4.56136 22.369C4.48121 22.265 4.4077 22.1579 4.34061 22.0484C2.75174 19.9496 1.81383 17.3623 1.81383 14.5635C1.81383 7.55129 7.70147 1.86669 14.9641 1.86669C22.2267 1.86669 28.1143 7.55129 28.1143 14.5635C28.1143 20.1334 24.3997 24.8657 19.2318 26.5768ZM20.3946 28.088C25.9471 25.9883 29.9282 20.7548 29.9282 14.5635C29.9282 6.49007 23.1679 0.0528564 14.9641 0.0528564C6.76024 0.0528564 0 6.49007 0 14.5635C0 17.7464 1.05861 20.6896 2.84444 23.0768C2.93073 23.2122 3.02379 23.3452 3.12379 23.4751C3.12398 23.4753 3.12417 23.4756 3.12436 23.4758L14.2459 37.9308C16.0772 40.311 19.4913 40.7558 21.8714 38.9247C24.2516 37.0934 24.6965 33.6794 22.8652 31.2993C22.8652 31.2993 22.8652 31.2993 22.8652 31.2993L20.3946 28.088Z" fill="black"/>
      <path d="M60.5784 14.5106C60.5784 20.7486 55.9193 25.9359 49.7777 27.0054L53.8916 32.3525C55.1121 33.9387 54.8156 36.2138 53.2294 37.4343C51.6432 38.6546 49.3679 38.3581 48.1475 36.7719L37.0254 22.3162C36.9452 22.2121 36.8717 22.1051 36.8046 21.9956C35.2157 19.8968 34.2778 17.3094 34.2778 14.5106C34.2778 7.49844 40.1655 1.81384 47.4281 1.81384C54.6907 1.81384 60.5784 7.49844 60.5784 14.5106Z" fill="currentColor"/>
      <path fill-rule="evenodd" clip-rule="evenodd" d="M51.696 26.5239C51.0762 26.7291 50.4355 26.8909 49.7779 27.0054L53.8917 32.3524C55.1122 33.9387 54.8157 36.2138 53.2295 37.4342C51.6433 38.6546 49.368 38.3581 48.1476 36.7719L37.0255 22.3162C36.9453 22.2121 36.8718 22.105 36.8047 21.9956C35.2159 19.8968 34.2779 17.3094 34.2779 14.5106C34.2779 7.49843 40.1656 1.81383 47.4282 1.81383C54.6908 1.81383 60.5785 7.49843 60.5785 14.5106C60.5785 20.0806 56.8638 24.8128 51.696 26.5239ZM52.8587 28.0352C58.4112 25.9355 62.3923 20.702 62.3923 14.5106C62.3923 6.43721 55.6321 0 47.4282 0C39.2243 0 32.4641 6.43721 32.4641 14.5106C32.4641 17.6935 33.5227 20.6367 35.3086 23.0239C35.3948 23.1594 35.4879 23.2923 35.5879 23.4222C35.5881 23.4225 35.5883 23.4227 35.5885 23.423L46.71 37.8779C48.5413 40.2581 51.9554 40.7029 54.3355 38.8719C56.7157 37.0405 57.1606 33.6265 55.3293 31.2464C55.3293 31.2464 55.3293 31.2464 55.3293 31.2464L52.8587 28.0352Z" fill="black"/>
    </symbol>
    <symbol viewBox="0 0 94.652 95.261" id="dato">
      <defs>
        <linearGradient id="a" y1="47.631" x2="94.652" y2="47.631" gradientUnits="userSpaceOnUse">
        <stop offset="0" stop-color="#ff593d"/>
        <stop offset="1" stop-color="#ff7751"/>
        </linearGradient>
      </defs>
      <title>d_only</title>
      <path d="M47.326,0H0V95.261H47.326c23.67,0,47.326-21.326,47.326-47.624S71,0,47.326,0Zm0,69.274a21.644,21.644,0,1,1,21.65-21.637A21.635,21.635,0,0,1,47.326,69.274Z" fill="url(#a)"/>
    </symbol>
    <symbol
    viewBox="0 0 28 28" style="enable-background:new 0 0 28 28;" xml:space="preserve" id="gatsby">
      <style type="text/css">
        .st0{fill:#663399;}
        .st1{fill:#FFFFFF;}
      </style>
      <g id="monogram">
        <circle class="st0" cx="14" cy="14" r="14"/>
        <g>
          <path class="st1" d="M6.2,21.8C4.1,19.7,3,16.9,3,14.2L13.9,25C11.1,24.9,8.3,23.9,6.2,21.8z"/>
          <path class="st1" d="M16.4,24.7L3.3,11.6C4.4,6.7,8.8,3,14,3c3.7,0,6.9,1.8,8.9,4.5l-1.5,1.3C19.7,6.5,17,5,14,5
            c-3.9,0-7.2,2.5-8.5,6L17,22.5c2.9-1,5.1-3.5,5.8-6.5H18v-2h7C25,19.2,21.3,23.6,16.4,24.7z"/>
        </g>
      </g>
    </symbol>
    <symbol viewBox="0 0 256 256" preserveAspectRatio="xMidYMid" id="next">
        <g>
            <path d="M119.616813,0.0688905149 C119.066276,0.118932037 117.314565,0.294077364 115.738025,0.419181169 C79.3775171,3.69690087 45.3192571,23.3131775 23.7481916,53.4631946 C11.7364614,70.2271045 4.05395894,89.2428829 1.15112414,109.384595 C0.12512219,116.415429 0,118.492153 0,128.025062 C0,137.557972 0.12512219,139.634696 1.15112414,146.665529 C8.10791789,194.730411 42.3163245,235.11392 88.7116325,250.076335 C97.0197458,252.753556 105.778299,254.580072 115.738025,255.680985 C119.616813,256.106338 136.383187,256.106338 140.261975,255.680985 C157.453763,253.779407 172.017986,249.525878 186.382014,242.194795 C188.584164,241.068861 189.00958,240.768612 188.709286,240.518404 C188.509091,240.36828 179.124927,227.782837 167.86393,212.570214 L147.393939,184.922273 L121.743891,146.965779 C107.630108,126.098464 96.0187683,109.034305 95.9186706,109.034305 C95.8185728,109.009284 95.7184751,125.873277 95.6684262,146.465363 C95.5933529,182.52028 95.5683284,183.971484 95.1178886,184.82219 C94.4672532,186.048207 93.9667644,186.548623 92.915738,187.099079 C92.114956,187.499411 91.4142717,187.574474 87.6355816,187.574474 L83.3063539,187.574474 L82.1552297,186.848872 C81.4044966,186.373477 80.8539589,185.747958 80.4785924,185.022356 L79.9530792,183.896422 L80.0031281,133.729796 L80.0782014,83.5381493 L80.8539589,82.5623397 C81.25435,82.0369037 82.1051808,81.3613431 82.7057674,81.0360732 C83.7317693,80.535658 84.1321603,80.4856165 88.4613881,80.4856165 C93.5663734,80.4856165 94.4172043,80.6857826 95.7434995,82.1369867 C96.1188661,82.5373189 110.007429,103.454675 126.623656,128.650581 C143.239883,153.846488 165.962072,188.250034 177.122972,205.139048 L197.392766,235.839522 L198.418768,235.163961 C207.502639,229.259062 217.112023,220.852086 224.719453,212.09482 C240.910264,193.504394 251.345455,170.835585 254.848876,146.665529 C255.874878,139.634696 256,137.557972 256,128.025062 C256,118.492153 255.874878,116.415429 254.848876,109.384595 C247.892082,61.3197135 213.683675,20.9362052 167.288368,5.97379012 C159.105376,3.32158945 150.396872,1.49507389 140.637341,0.394160408 C138.234995,0.143952798 121.693842,-0.131275573 119.616813,0.0688905149 L119.616813,0.0688905149 Z M172.017986,77.4831252 C173.219159,78.0836234 174.195112,79.2345784 174.545455,80.435575 C174.74565,81.0861148 174.795699,94.9976579 174.74565,126.348671 L174.670577,171.336 L166.73783,159.17591 L158.780059,147.01582 L158.780059,114.313685 C158.780059,93.1711423 158.880156,81.2862808 159.030303,80.7108033 C159.430694,79.3096407 160.306549,78.2087272 161.507722,77.5581875 C162.533724,77.0327515 162.909091,76.98271 166.837928,76.98271 C170.541544,76.98271 171.19218,77.0327515 172.017986,77.4831252 Z" fill="#000000">

        </path>
      </g>
    </symbol>
    <symbol viewBox="-16.5 0 289 289" preserveAspectRatio="xMidYMid" id="contentful">
      <g>
        <path d="M87.333315,200.77659 C72.0274763,186.371095 63.0240418,166.563539 63.0240418,144.054953 C63.0240418,121.546366 72.0274763,101.73881 86.4329716,87.333315 C99.0377799,74.7285067 99.0377799,54.9209507 86.4329716,42.3161423 C73.8281632,29.711334 54.0206072,29.711334 41.4157989,42.3161423 C16.2061822,68.4261025 0,104.439841 0,144.054953 C0,183.670065 16.2061822,219.683803 42.3161423,245.793763 C54.9209507,258.398571 74.7285067,258.398571 87.333315,245.793763 C99.0377799,233.188955 99.0377799,213.381399 87.333315,200.77659 Z" fill="#FAE501"></path>
        <path d="M87.333315,87.333315 C101.73881,72.0274763 121.546366,63.0240418 144.054953,63.0240418 C166.563539,63.0240418 186.371095,72.0274763 200.77659,86.4329716 C213.381399,99.0377799 233.188955,99.0377799 245.793763,86.4329716 C258.398571,73.8281632 258.398571,54.0206072 245.793763,41.4157989 C219.683803,16.2061822 183.670065,0 144.054953,0 C104.439841,0 68.4261025,16.2061822 42.3161423,42.3161423 C29.711334,54.9209507 29.711334,74.7285067 42.3161423,87.333315 C54.9209507,99.0377799 74.7285067,99.0377799 87.333315,87.333315 Z" fill="#4FB5E1"></path>
        <path d="M200.77659,200.77659 C186.371095,216.082429 166.563539,225.085863 144.054953,225.085863 C121.546366,225.085863 101.73881,216.082429 87.333315,201.676934 C74.7285067,189.072125 54.9209507,189.072125 42.3161423,201.676934 C29.711334,214.281742 29.711334,234.089298 42.3161423,246.694106 C68.4261025,271.903723 104.439841,288.109905 144.054953,288.109905 C183.670065,288.109905 219.683803,271.903723 245.793763,245.793763 C258.398571,233.188955 258.398571,213.381399 245.793763,200.77659 C233.188955,189.072125 213.381399,189.072125 200.77659,200.77659 Z" fill="#F05751"></path>
        <ellipse fill="#0681B6" cx="64.8247287" cy="64.8247287" rx="31.5120209" ry="31.5120209"></ellipse>
        <ellipse fill="#CD4739" cx="64.8247287" cy="223.285177" rx="31.5120209" ry="31.5120209"></ellipse>
      </g>
    </symbol>
    <symbol id="github" viewBox="0 0 98 96"><path fill-rule="evenodd" clip-rule="evenodd" d="M48.854 0C21.839 0 0 22 0 49.217c0 21.756 13.993 40.172 33.405 46.69 2.427.49 3.316-1.059 3.316-2.362 0-1.141-.08-5.052-.08-9.127-13.59 2.934-16.42-5.867-16.42-5.867-2.184-5.704-5.42-7.17-5.42-7.17-4.448-3.015.324-3.015.324-3.015 4.934.326 7.523 5.052 7.523 5.052 4.367 7.496 11.404 5.378 14.235 4.074.404-3.178 1.699-5.378 3.074-6.6-10.839-1.141-22.243-5.378-22.243-24.283 0-5.378 1.94-9.778 5.014-13.2-.485-1.222-2.184-6.275.486-13.038 0 0 4.125-1.304 13.426 5.052a46.97 46.97 0 0 1 12.214-1.63c4.125 0 8.33.571 12.213 1.63 9.302-6.356 13.427-5.052 13.427-5.052 2.67 6.763.97 11.816.485 13.038 3.155 3.422 5.015 7.822 5.015 13.2 0 18.905-11.404 23.06-22.324 24.283 1.78 1.548 3.316 4.481 3.316 9.126 0 6.6-.08 11.897-.08 13.526 0 1.304.89 2.853 3.316 2.364 19.412-6.52 33.405-24.935 33.405-46.691C97.707 22 75.788 0 48.854 0z" fill="#24292f"/></symbol>
  </defs>  
</svg>