<svg width="0" height="0" class="hidden">
<symbol id="logo" viewBox="0 0 56 56" fill="none" xmlns="http://www.w3.org/2000/svg">
<path d="M8 12C8 9.79086 9.79086 8 12 8H52C54.2091 8 56 9.79086 56 12V52C56 54.2091 54.2091 56 52 56H12C9.79086 56 8 54.2091 8 52V12Z" fill="#B6F2FF"/>
<path fill-rule="evenodd" clip-rule="evenodd" d="M52 10H12C10.8954 10 10 10.8954 10 12V52C10 53.1046 10.8954 54 12 54H52C53.1046 54 54 53.1046 54 52V12C54 10.8954 53.1046 10 52 10ZM12 8C9.79086 8 8 9.79086 8 12V52C8 54.2091 9.79086 56 12 56H52C54.2091 56 56 54.2091 56 52V12C56 9.79086 54.2091 8 52 8H12Z" fill="black"/>
<path d="M0 4C0 1.79086 1.79086 0 4 0H44C46.2091 0 48 1.79086 48 4V44C48 46.2091 46.2091 48 44 48H4C1.79086 48 0 46.2091 0 44V4Z" fill="white"/>
<path fill-rule="evenodd" clip-rule="evenodd" d="M44 2H4C2.89543 2 2 2.89543 2 4V44C2 45.1046 2.89543 46 4 46H44C45.1046 46 46 45.1046 46 44V4C46 2.89543 45.1046 2 44 2ZM4 0C1.79086 0 0 1.79086 0 4V44C0 46.2091 1.79086 48 4 48H44C46.2091 48 48 46.2091 48 44V4C48 1.79086 46.2091 0 44 0H4Z" fill="black"/>
<path d="M10.8996 40C9.01046 40 8 38.9834 8 37.0829V10.9613C8 9.06077 9.01046 8 10.8996 8H27.1004C28.9895 8 30 9.06077 30 10.9613V11.3149C30 13.2155 28.9895 14.232 27.1004 14.232H14.8975V21.1713H26.3096C28.1987 21.1713 29.2092 22.1436 29.2092 23.8674V23.9116C29.2092 25.6354 28.1987 26.6077 26.3096 26.6077H14.8975V33.8122H27.1004C28.9895 33.8122 30 34.8729 30 36.7735V37.0829C30 38.9834 28.9895 40 27.1004 40H10.8996Z" fill="black"/>
<path d="M36.12 40.3421C34.3893 40.3421 32.854 39.5885 32.1562 38.4719C31.8352 37.9276 32.0166 37.5228 32.6307 37.3274L32.8261 37.2716C33.3146 37.1041 33.5937 37.2576 33.9845 37.6903C34.5428 38.2765 35.2546 38.5975 36.092 38.5975C37.1667 38.5975 37.7948 38.1509 37.7948 37.3972C37.7948 35.4293 32.2539 36.7133 32.2539 32.931C32.2539 31.1724 33.7473 30 35.8827 30C37.4738 30 38.9114 30.6281 39.5394 31.6469C39.9163 32.2331 39.7488 32.6658 39.1068 32.8193L38.8695 32.8751C38.2693 33.0147 38.0321 32.7635 37.6134 32.4006C37.1388 31.9679 36.6503 31.7586 35.9804 31.7586C35.0174 31.7586 34.4172 32.1773 34.4172 32.8751C34.4172 35.0106 40 33.5311 40 37.3414C40 39.1558 38.4089 40.3421 36.12 40.3421Z" fill="black"/>
</symbol>
</svg>