<svg width="0" height="0" class="hidden" xmlns="http://www.w3.org/2000/svg">
  <defs>
    <symbol id="logo" viewBox="0 0 56 56" fill="none" >
      <path d="M8 12C8 9.79086 9.79086 8 12 8H52C54.2091 8 56 9.79086 56 12V52C56 54.2091 54.2091 56 52 56H12C9.79086 56 8 54.2091 8 52V12Z" fill="#B6F2FF"/>
      <path fill-rule="evenodd" clip-rule="evenodd" d="M52 10H12C10.8954 10 10 10.8954 10 12V52C10 53.1046 10.8954 54 12 54H52C53.1046 54 54 53.1046 54 52V12C54 10.8954 53.1046 10 52 10ZM12 8C9.79086 8 8 9.79086 8 12V52C8 54.2091 9.79086 56 12 56H52C54.2091 56 56 54.2091 56 52V12C56 9.79086 54.2091 8 52 8H12Z" fill="black"/>
      <path d="M0 4C0 1.79086 1.79086 0 4 0H44C46.2091 0 48 1.79086 48 4V44C48 46.2091 46.2091 48 44 48H4C1.79086 48 0 46.2091 0 44V4Z" fill="white"/>
      <path fill-rule="evenodd" clip-rule="evenodd" d="M44 2H4C2.89543 2 2 2.89543 2 4V44C2 45.1046 2.89543 46 4 46H44C45.1046 46 46 45.1046 46 44V4C46 2.89543 45.1046 2 44 2ZM4 0C1.79086 0 0 1.79086 0 4V44C0 46.2091 1.79086 48 4 48H44C46.2091 48 48 46.2091 48 44V4C48 1.79086 46.2091 0 44 0H4Z" fill="black"/>
      <path d="M10.8996 40C9.01046 40 8 38.9834 8 37.0829V10.9613C8 9.06077 9.01046 8 10.8996 8H27.1004C28.9895 8 30 9.06077 30 10.9613V11.3149C30 13.2155 28.9895 14.232 27.1004 14.232H14.8975V21.1713H26.3096C28.1987 21.1713 29.2092 22.1436 29.2092 23.8674V23.9116C29.2092 25.6354 28.1987 26.6077 26.3096 26.6077H14.8975V33.8122H27.1004C28.9895 33.8122 30 34.8729 30 36.7735V37.0829C30 38.9834 28.9895 40 27.1004 40H10.8996Z" fill="black"/>
      <path d="M36.12 40.3421C34.3893 40.3421 32.854 39.5885 32.1562 38.4719C31.8352 37.9276 32.0166 37.5228 32.6307 37.3274L32.8261 37.2716C33.3146 37.1041 33.5937 37.2576 33.9845 37.6903C34.5428 38.2765 35.2546 38.5975 36.092 38.5975C37.1667 38.5975 37.7948 38.1509 37.7948 37.3972C37.7948 35.4293 32.2539 36.7133 32.2539 32.931C32.2539 31.1724 33.7473 30 35.8827 30C37.4738 30 38.9114 30.6281 39.5394 31.6469C39.9163 32.2331 39.7488 32.6658 39.1068 32.8193L38.8695 32.8751C38.2693 33.0147 38.0321 32.7635 37.6134 32.4006C37.1388 31.9679 36.6503 31.7586 35.9804 31.7586C35.0174 31.7586 34.4172 32.1773 34.4172 32.8751C34.4172 35.0106 40 33.5311 40 37.3414C40 39.1558 38.4089 40.3421 36.12 40.3421Z" fill="black"/>
    </symbol>
    <symbol id="filler" width="12" height="60" viewBox="0 0 12 60" >
      <circle cx="6" cy="6" r="5" fill="#FFB6F8" stroke="black" stroke-width="2"/>
      <circle cx="6" cy="30" r="5" fill="#68E4FF" stroke="black" stroke-width="2"/>
      <circle cx="6" cy="54" r="5" fill="#6EFF4A" stroke="black" stroke-width="2"/>
    </symbol>
    <symbol id="right-arrow" viewBox="0 0 20 20" fill="none" >
      <path d="M1 10H19M19 10L10.5 1.5M19 10L10.5 18.5" stroke="black" stroke-width="2" stroke-linecap="round" stroke-linejoin="round"></path>
    </symbol>
    <symbol id="left-arrow" xmlns:xlink="http://www.w3.org/1999/xlink" aria-hidden="true" role="img" viewBox="0 0 24 24">
      <path fill="none" stroke="currentColor" stroke-linecap="round" stroke-linejoin="round" stroke-width="1.5" d="M21 12H3m0 0l8.5-8.5M3 12l8.5 8.5"></path>
    </symbol>
    <symbol viewBox="0 0 63 41" fill="none" id="quote">
      <path d="M28.1142 14.5635C28.1142 20.8014 23.4552 25.9887 17.3136 27.0583L21.4275 32.4053C22.648 33.9915 22.3515 36.2667 20.7653 37.4871C19.1791 38.7074 16.9038 38.411 15.6834 36.8248L4.56126 22.369C4.4811 22.265 4.40759 22.1579 4.3405 22.0484C2.75163 19.9496 1.81372 17.3623 1.81372 14.5635C1.81372 7.5513 7.70136 1.8667 14.964 1.8667C22.2266 1.8667 28.1142 7.5513 28.1142 14.5635Z" fill="currentColor"/>
      <path fill-rule="evenodd" clip-rule="evenodd" d="M19.2318 26.5768C18.6121 26.782 17.9714 26.9437 17.3137 27.0582L21.4276 32.4053C22.6481 33.9915 22.3516 36.2667 20.7654 37.4871C19.1792 38.7074 16.9039 38.411 15.6835 36.8247L4.56136 22.369C4.48121 22.265 4.4077 22.1579 4.34061 22.0484C2.75174 19.9496 1.81383 17.3623 1.81383 14.5635C1.81383 7.55129 7.70147 1.86669 14.9641 1.86669C22.2267 1.86669 28.1143 7.55129 28.1143 14.5635C28.1143 20.1334 24.3997 24.8657 19.2318 26.5768ZM20.3946 28.088C25.9471 25.9883 29.9282 20.7548 29.9282 14.5635C29.9282 6.49007 23.1679 0.0528564 14.9641 0.0528564C6.76024 0.0528564 0 6.49007 0 14.5635C0 17.7464 1.05861 20.6896 2.84444 23.0768C2.93073 23.2122 3.02379 23.3452 3.12379 23.4751C3.12398 23.4753 3.12417 23.4756 3.12436 23.4758L14.2459 37.9308C16.0772 40.311 19.4913 40.7558 21.8714 38.9247C24.2516 37.0934 24.6965 33.6794 22.8652 31.2993C22.8652 31.2993 22.8652 31.2993 22.8652 31.2993L20.3946 28.088Z" fill="black"/>
      <path d="M60.5784 14.5106C60.5784 20.7486 55.9193 25.9359 49.7777 27.0054L53.8916 32.3525C55.1121 33.9387 54.8156 36.2138 53.2294 37.4343C51.6432 38.6546 49.3679 38.3581 48.1475 36.7719L37.0254 22.3162C36.9452 22.2121 36.8717 22.1051 36.8046 21.9956C35.2157 19.8968 34.2778 17.3094 34.2778 14.5106C34.2778 7.49844 40.1655 1.81384 47.4281 1.81384C54.6907 1.81384 60.5784 7.49844 60.5784 14.5106Z" fill="currentColor"/>
      <path fill-rule="evenodd" clip-rule="evenodd" d="M51.696 26.5239C51.0762 26.7291 50.4355 26.8909 49.7779 27.0054L53.8917 32.3524C55.1122 33.9387 54.8157 36.2138 53.2295 37.4342C51.6433 38.6546 49.368 38.3581 48.1476 36.7719L37.0255 22.3162C36.9453 22.2121 36.8718 22.105 36.8047 21.9956C35.2159 19.8968 34.2779 17.3094 34.2779 14.5106C34.2779 7.49843 40.1656 1.81383 47.4282 1.81383C54.6908 1.81383 60.5785 7.49843 60.5785 14.5106C60.5785 20.0806 56.8638 24.8128 51.696 26.5239ZM52.8587 28.0352C58.4112 25.9355 62.3923 20.702 62.3923 14.5106C62.3923 6.43721 55.6321 0 47.4282 0C39.2243 0 32.4641 6.43721 32.4641 14.5106C32.4641 17.6935 33.5227 20.6367 35.3086 23.0239C35.3948 23.1594 35.4879 23.2923 35.5879 23.4222C35.5881 23.4225 35.5883 23.4227 35.5885 23.423L46.71 37.8779C48.5413 40.2581 51.9554 40.7029 54.3355 38.8719C56.7157 37.0405 57.1606 33.6265 55.3293 31.2464C55.3293 31.2464 55.3293 31.2464 55.3293 31.2464L52.8587 28.0352Z" fill="black"/>
    </symbol>
  </defs>  
</svg>